<svg width="512" height="512" viewBox="0 0 512 512" fill="none" xmlns="http://www.w3.org/2000/svg">
    <!-- Fondo del icono -->
    <rect width="512" height="512" rx="90" fill="#2a2b2e"/>
    
    <!-- Carpeta (Capa trasera) -->
    <path d="M416 160H208.781C193.843 160 180.204 151.062 173.633 137.84L154.367 98.1604C147.796 84.938 134.157 76 119.219 76H96C78.3269 76 64 90.3269 64 108V380C64 406.51 85.4903 428 112 428H400C426.51 428 448 406.51 448 380V196C448 176.67 433.33 160 416 160Z" fill="#4a5294"/>
    
    <!-- Letra 'N' de NotesApp -->
    <path d="M256 224V352M256 224L320 352V224L256 352" stroke="white" stroke-width="24" stroke-linecap="round" stroke-linejoin="round"/>
    
    <!-- Carpeta (Capa frontal) -->
    <path d="M64 218V380C64 406.51 85.4903 428 112 428H400C426.51 428 448 406.51 448 380V196C448 176.67 433.33 160 416 160H112C85.4903 160 64 181.49 64 208V218Z" fill="#8ab4f8"/>
</svg>